<svg id="Layer_1" data-name="Layer 1" xmlns="http://www.w3.org/2000/svg" viewBox="0 0 512 512">
    <defs>
    <style>.cls-1{fill:#ff742c;stroke:#ff742c;stroke-width:0.22px;}.cls-2{fill:#fedc00;}.cls-3{fill:#1b1918;}.cls-4{fill:#099146;}.cls-5{fill:#ab1f23;}.cls-6{fill:#e21e26;}.cls-7{fill:#1b9dd9;}</style>
    </defs>
    <title>tonnage logo</title>
    <path id="path74" class="cls-1" d="M245.49,4.43c-42.63,1.62-84.68,15-119.66,41.28C96.59,67.66,74,93.88,58.35,122.58l76.46,44.14c21.54-42.1,64.08-68.25,109.2-72.6a64.89,64.89,0,0,1,1.47-89.7ZM51.1,137.09C21,203.36,25.71,280.65,67.55,348.56L144.74,304c-14.86-23.21-24.55-48.13-24.59-74.15a140.1,140.1,0,0,1,8.18-48.18Zm25.35,225c28.74,41.26,67.08,76.36,106.94,105.3,8.56,6.22,41.63,29.8,60.18,38.82V404.63C214,381,179.1,351.23,154,317.35ZM259.76,505.33c52-30,102.62-61.53,143.58-105.11q-1.8.1-3.63.1a64.91,64.91,0,0,1-63.83-53.15q-5,5.89-10.22,11.58a295.68,295.68,0,0,1-65.9,48.67Z"/>
    <path id="path76" class="cls-2" d="M256.77,163.55a63.54,63.54,0,1,0,63.54,63.54A63.54,63.54,0,0,0,256.77,163.55Z"/>
    <path id="path78" class="cls-3" d="M291.65,6.78A43.27,43.27,0,1,0,334.91,50,43.26,43.26,0,0,0,291.65,6.78Z"/>
    <path id="path80" class="cls-4" d="M371.78,48.21A43.27,43.27,0,1,0,415,91.48,43.26,43.26,0,0,0,371.78,48.21Z"/>
    <path id="path82" class="cls-5" d="M424.38,121.51a43.27,43.27,0,1,0,43.27,43.27A43.27,43.27,0,0,0,424.38,121.51Z"/>
    <path id="path84" class="cls-6" d="M437,210.67a43.27,43.27,0,1,0,43.27,43.27A43.26,43.26,0,0,0,437,210.67Z"/>
    <path id="path86" class="cls-7" d="M399.71,292.16A43.27,43.27,0,1,0,443,335.43,43.26,43.26,0,0,0,399.71,292.16Z"/>
</svg>